<?xml version="1.0" encoding="UTF-8"?>
<!DOCTYPE svg PUBLIC "-//W3C//DTD SVG 1.1//EN" "http://www.w3.org/Graphics/SVG/1.1/DTD/svg11.dtd">
<svg xmlns="http://www.w3.org/2000/svg" version="1.1" width="3072px" height="1028px" style="shape-rendering:geometricPrecision; text-rendering:geometricPrecision; image-rendering:optimizeQuality; fill-rule:evenodd; clip-rule:evenodd" xmlns:xlink="http://www.w3.org/1999/xlink">
<g><path style="opacity:0.997" fill="#1858a3" d="M 197.5,199.5 C 692.833,199.5 1188.17,199.5 1683.5,199.5C 1683.5,408.833 1683.5,618.167 1683.5,827.5C 1188.17,827.5 692.833,827.5 197.5,827.5C 197.5,618.167 197.5,408.833 197.5,199.5 Z"/></g>
<g><path style="opacity:0.992" fill="#175399" d="M 2153.5,255.5 C 2173.83,255.5 2194.17,255.5 2214.5,255.5C 2214.5,277.833 2214.5,300.167 2214.5,322.5C 2249.17,322.5 2283.83,322.5 2318.5,322.5C 2318.5,342.5 2318.5,362.5 2318.5,382.5C 2239.5,382.5 2160.5,382.5 2081.5,382.5C 2081.67,465.501 2081.5,548.501 2081,631.5C 2069.63,709.031 2025.47,755.031 1948.5,769.5C 1948.5,749.5 1948.5,729.5 1948.5,709.5C 1978.84,700.569 2000.34,681.569 2013,652.5C 2015.78,645.731 2017.78,638.731 2019,631.5C 2020.48,528.519 2020.98,425.519 2020.5,322.5C 2064.83,322.5 2109.17,322.5 2153.5,322.5C 2153.5,300.167 2153.5,277.833 2153.5,255.5 Z"/></g>
<g><path style="opacity:0.983" fill="#175399" d="M 2432.5,255.5 C 2453.17,255.5 2473.83,255.5 2494.5,255.5C 2494.5,277.833 2494.5,300.167 2494.5,322.5C 2511.83,322.5 2529.17,322.5 2546.5,322.5C 2554.13,375.692 2544.46,425.358 2517.5,471.5C 2527.15,481.653 2536.99,491.653 2547,501.5C 2547.67,528.5 2547.67,555.5 2547,582.5C 2529.67,565.833 2512.33,549.167 2495,532.5C 2494.5,611.499 2494.33,690.499 2494.5,769.5C 2473.83,769.5 2453.17,769.5 2432.5,769.5C 2432.83,700.497 2432.5,631.497 2431.5,562.5C 2410.29,577.273 2387.29,588.606 2362.5,596.5C 2361.33,572.507 2361.17,548.507 2362,524.5C 2415.38,499.782 2453.05,460.115 2475,405.5C 2477.68,398.297 2479.85,390.963 2481.5,383.5C 2440.5,383.5 2399.5,383.5 2358.5,383.5C 2358.5,363.167 2358.5,342.833 2358.5,322.5C 2383.17,322.5 2407.83,322.5 2432.5,322.5C 2432.5,300.167 2432.5,277.833 2432.5,255.5 Z"/></g>
<g><path style="opacity:0.983" fill="#175399" d="M 2567.5,273.5 C 2643.83,273.333 2720.17,273.5 2796.5,274C 2827.42,278.917 2845.92,296.75 2852,327.5C 2852.5,410.499 2852.67,493.499 2852.5,576.5C 2832.17,576.5 2811.83,576.5 2791.5,576.5C 2791.67,500.166 2791.5,423.833 2791,347.5C 2789.91,341.412 2786.41,337.579 2780.5,336C 2730.17,335.5 2679.83,335.333 2629.5,335.5C 2629.5,416.167 2629.5,496.833 2629.5,577.5C 2608.83,577.5 2588.17,577.5 2567.5,577.5C 2567.5,476.167 2567.5,374.833 2567.5,273.5 Z"/></g>
<g><path style="opacity:0.987" fill="#175499" d="M 1802.5,295.5 C 1861.5,295.5 1920.5,295.5 1979.5,295.5C 1979.67,405.167 1979.5,514.834 1979,624.5C 1974.03,651.808 1958.19,669.308 1931.5,677C 1888.53,678.467 1845.53,678.967 1802.5,678.5C 1802.5,550.833 1802.5,423.167 1802.5,295.5 Z M 1862.5,356.5 C 1881.17,356.5 1899.83,356.5 1918.5,356.5C 1918.5,390.167 1918.5,423.833 1918.5,457.5C 1899.83,457.5 1881.17,457.5 1862.5,457.5C 1862.5,423.833 1862.5,390.167 1862.5,356.5 Z M 1862.5,517.5 C 1881.17,517.5 1899.83,517.5 1918.5,517.5C 1918.67,546.502 1918.5,575.502 1918,604.5C 1917.04,610.127 1913.88,613.96 1908.5,616C 1893.17,616.5 1877.84,616.667 1862.5,616.5C 1862.5,583.5 1862.5,550.5 1862.5,517.5 Z"/></g>
<g><path style="opacity:1" fill="#b4bbdc" d="M 373.5,304.5 C 342.907,303.508 312.24,303.175 281.5,303.5C 281.5,443.5 281.5,583.5 281.5,723.5C 280.5,583.334 280.167,443.001 280.5,302.5C 311.851,301.841 342.851,302.508 373.5,304.5 Z"/></g>
<g><path style="opacity:1" fill="#fefefe" d="M 619.5,302.5 C 691.5,302.5 763.5,302.5 835.5,302.5C 835.5,323.833 835.5,345.167 835.5,366.5C 784.833,366.5 734.167,366.5 683.5,366.5C 683.5,403.167 683.5,439.833 683.5,476.5C 723.5,476.5 763.5,476.5 803.5,476.5C 803.5,497.833 803.5,519.167 803.5,540.5C 763.5,540.5 723.5,540.5 683.5,540.5C 683.5,580.167 683.5,619.833 683.5,659.5C 734.167,659.5 784.833,659.5 835.5,659.5C 835.5,680.833 835.5,702.167 835.5,723.5C 763.5,723.5 691.5,723.5 619.5,723.5C 619.5,583.167 619.5,442.833 619.5,302.5 Z"/></g>
<g><path style="opacity:1" fill="#bec4e0" d="M 903.5,303.5 C 969.998,302.501 1036.66,302.168 1103.5,302.5C 1103.5,324.167 1103.5,345.833 1103.5,367.5C 1049.5,367.5 995.5,367.5 941.5,367.5C 994.997,366.501 1048.66,366.168 1102.5,366.5C 1102.5,345.5 1102.5,324.5 1102.5,303.5C 1036.17,303.5 969.833,303.5 903.5,303.5 Z"/></g>
<g><path style="opacity:1" fill="#fefefe" d="M 1250.5,539.5 C 1254.95,540.827 1259.78,541.494 1265,541.5C 1270.01,541.499 1274.85,541.166 1279.5,540.5C 1293.58,461.31 1307.58,381.977 1321.5,302.5C 1342.83,302.5 1364.17,302.5 1385.5,302.5C 1360.92,442.813 1336.59,583.147 1312.5,723.5C 1281.17,723.5 1249.83,723.5 1218.5,723.5C 1193.84,583.228 1169.51,442.895 1145.5,302.5C 1167.08,302.173 1188.58,302.506 1210,303.5C 1223.5,382.18 1237,460.846 1250.5,539.5 Z"/></g>
<g><path style="opacity:1" fill="#fefefe" d="M 373.5,304.5 C 387.407,383.184 401.407,461.851 415.5,540.5C 424.833,540.5 434.167,540.5 443.5,540.5C 457.61,461.506 471.61,382.506 485.5,303.5C 515.833,303.5 546.167,303.5 576.5,303.5C 576.5,443.5 576.5,583.5 576.5,723.5C 555.5,723.5 534.5,723.5 513.5,723.5C 513.5,662.5 513.5,601.5 513.5,540.5C 505.316,540.174 497.316,540.508 489.5,541.5C 478.803,601.484 468.303,661.484 458,721.5C 439.068,723.48 419.901,724.147 400.5,723.5C 389.833,662.5 379.167,601.5 368.5,540.5C 360.58,540.185 352.747,540.518 345,541.5C 344.5,602.166 344.333,662.832 344.5,723.5C 323.5,723.5 302.5,723.5 281.5,723.5C 281.5,583.5 281.5,443.5 281.5,303.5C 312.24,303.175 342.907,303.508 373.5,304.5 Z"/></g>
<g><path style="opacity:1" fill="#ccd0e7" d="M 485.5,303.5 C 515.995,302.502 546.662,302.169 577.5,302.5C 577.833,443.001 577.5,583.334 576.5,723.5C 576.5,583.5 576.5,443.5 576.5,303.5C 546.167,303.5 515.833,303.5 485.5,303.5 Z"/></g>
<g><path style="opacity:1" fill="#fefefe" d="M 903.5,303.5 C 969.833,303.5 1036.17,303.5 1102.5,303.5C 1102.5,324.5 1102.5,345.5 1102.5,366.5C 1048.66,366.168 994.997,366.501 941.5,367.5C 941.5,464.5 941.5,561.5 941.5,658.5C 973.996,659.498 1006.66,659.832 1039.5,659.5C 1039.83,619.996 1039.5,580.663 1038.5,541.5C 1026.01,540.505 1013.34,540.171 1000.5,540.5C 1000.5,519.5 1000.5,498.5 1000.5,477.5C 1034.5,477.5 1068.5,477.5 1102.5,477.5C 1102.5,550.5 1102.5,623.5 1102.5,696.5C 1101.38,705.567 1097.05,712.734 1089.5,718C 1085.19,720.66 1080.52,722.327 1075.5,723C 1009.5,723.5 943.501,723.667 877.5,723.5C 877.333,591.166 877.5,458.833 878,326.5C 881.974,313.688 890.474,306.021 903.5,303.5 Z"/></g>
<g><path style="opacity:1" fill="#fefefe" d="M 1427.5,303.5 C 1448.83,303.5 1470.17,303.5 1491.5,303.5C 1491.5,443.5 1491.5,583.5 1491.5,723.5C 1470.17,723.5 1448.83,723.5 1427.5,723.5C 1427.5,583.5 1427.5,443.5 1427.5,303.5 Z"/></g>
<g><path style="opacity:1" fill="#fefefe" d="M 1533.5,303.5 C 1554.83,303.5 1576.17,303.5 1597.5,303.5C 1597.5,443.5 1597.5,583.5 1597.5,723.5C 1576.17,723.5 1554.83,723.5 1533.5,723.5C 1533.5,583.5 1533.5,443.5 1533.5,303.5 Z"/></g>
<g><path style="opacity:0.985" fill="#175399" d="M 2675.5,375.5 C 2696.5,375.5 2717.5,375.5 2738.5,375.5C 2738.24,420.845 2737.41,466.178 2736,511.5C 2734.96,525.56 2733.46,539.56 2731.5,553.5C 2739.5,553.5 2747.5,553.5 2755.5,553.5C 2755.33,601.168 2755.5,648.834 2756,696.5C 2757.5,702 2761,705.5 2766.5,707C 2778.17,707.667 2789.83,707.667 2801.5,707C 2807.46,704.934 2810.96,700.768 2812,694.5C 2812.82,678.926 2812.66,663.426 2811.5,648C 2832.16,647.5 2852.83,647.333 2873.5,647.5C 2873.67,670.502 2873.5,693.502 2873,716.5C 2866.69,748.074 2847.52,765.574 2815.5,769C 2791.83,769.127 2768.17,768.794 2744.5,768C 2718,763.171 2701.5,747.671 2695,721.5C 2693.73,698.87 2693.06,676.203 2693,653.5C 2662.41,701.886 2621.25,738.386 2569.5,763C 2564.44,765.702 2559.1,767.536 2553.5,768.5C 2553.33,748.164 2553.5,727.831 2554,707.5C 2630.89,662.109 2671.23,594.442 2675,504.5C 2675.5,461.501 2675.67,418.501 2675.5,375.5 Z"/></g>
<g><path style="opacity:1" fill="#bec3e0" d="M 1102.5,696.5 C 1102.5,623.5 1102.5,550.5 1102.5,477.5C 1068.5,477.5 1034.5,477.5 1000.5,477.5C 1000.5,498.5 1000.5,519.5 1000.5,540.5C 1013.34,540.171 1026.01,540.505 1038.5,541.5C 1025.5,541.5 1012.5,541.5 999.5,541.5C 999.5,519.833 999.5,498.167 999.5,476.5C 1034.17,476.5 1068.83,476.5 1103.5,476.5C 1103.83,550.002 1103.5,623.335 1102.5,696.5 Z"/></g>
<g><path style="opacity:1" fill="#cdd1e7" d="M 1250.5,539.5 C 1260.08,540.473 1269.75,540.806 1279.5,540.5C 1274.85,541.166 1270.01,541.499 1265,541.5C 1259.78,541.494 1254.95,540.827 1250.5,539.5 Z"/></g>
<g><path style="opacity:1" fill="#657eb9" d="M 489.5,541.5 C 497.316,540.508 505.316,540.174 513.5,540.5C 513.5,601.5 513.5,662.5 513.5,723.5C 512.501,663.002 512.168,602.336 512.5,541.5C 504.833,541.5 497.167,541.5 489.5,541.5 Z"/></g>
<g><path style="opacity:1" fill="#7488bf" d="M 1038.5,541.5 C 1039.5,580.663 1039.83,619.996 1039.5,659.5C 1006.66,659.832 973.996,659.498 941.5,658.5C 973.833,658.5 1006.17,658.5 1038.5,658.5C 1038.5,619.5 1038.5,580.5 1038.5,541.5 Z"/></g>
</svg>
