<?xml version="1.0" encoding="UTF-8"?>
<!DOCTYPE svg PUBLIC "-//W3C//DTD SVG 1.1//EN" "http://www.w3.org/Graphics/SVG/1.1/DTD/svg11.dtd">
<svg xmlns="http://www.w3.org/2000/svg" version="1.1" width="2560px" height="512px" style="shape-rendering:geometricPrecision; text-rendering:geometricPrecision; image-rendering:optimizeQuality; fill-rule:evenodd; clip-rule:evenodd" xmlns:xlink="http://www.w3.org/1999/xlink">
<g><path style="opacity:0.992" fill="#0081c4" d="M 2372.5,-0.5 C 2391.83,-0.5 2411.17,-0.5 2430.5,-0.5C 2457.44,0.773495 2484.44,3.10683 2511.5,6.5C 2511.5,46.8333 2511.5,87.1667 2511.5,127.5C 2490.72,122.777 2469.72,119.277 2448.5,117C 2429.76,115.959 2411.1,116.626 2392.5,119C 2377.97,121.181 2365.8,127.681 2356,138.5C 2346.19,158.402 2351.69,172.569 2372.5,181C 2407.09,193.53 2441.76,205.864 2476.5,218C 2526.06,237.963 2553.72,274.463 2559.5,327.5C 2559.5,340.5 2559.5,353.5 2559.5,366.5C 2552.8,424.381 2523.14,465.881 2470.5,491C 2439.73,504.186 2407.73,511.019 2374.5,511.5C 2359.83,511.5 2345.17,511.5 2330.5,511.5C 2298.05,509.56 2265.72,505.56 2233.5,499.5C 2233.5,458.833 2233.5,418.167 2233.5,377.5C 2282.02,391.376 2331.35,395.543 2381.5,390C 2394.66,387.751 2406.66,382.751 2417.5,375C 2430.01,364.465 2432.18,352.298 2424,338.5C 2416.68,331.423 2408.18,326.257 2398.5,323C 2366.17,311.333 2333.83,299.667 2301.5,288C 2259.56,269.046 2234.39,236.88 2226,191.5C 2218.98,144.922 2228.65,102.256 2255,63.5C 2285.29,26.0776 2324.46,4.74427 2372.5,-0.5 Z"/></g>
<g><path style="opacity:0.995" fill="#0081c4" d="M -0.5,499.5 C -0.5,335.5 -0.5,171.5 -0.5,7.5C 61.8368,6.57436 124.17,5.74102 186.5,5C 219.453,4.71446 251.453,10.0478 282.5,21C 331.586,42.0864 364.753,77.9197 382,128.5C 402.492,195.729 393.158,258.396 354,316.5C 322.318,357.092 280.818,381.592 229.5,390C 221.535,391.281 213.535,392.281 205.5,393C 179.521,394.354 153.521,394.854 127.5,394.5C 127.5,429.5 127.5,464.5 127.5,499.5C 84.8333,499.5 42.1667,499.5 -0.5,499.5 Z M 143.5,115.5 C 168.824,113.22 192.824,117.72 215.5,129C 237.395,142.262 249.561,161.762 252,187.5C 255.043,240.797 230.21,271.964 177.5,281C 160.888,283.56 144.222,284.06 127.5,282.5C 127.5,227.5 127.5,172.5 127.5,117.5C 133.034,117.332 138.367,116.665 143.5,115.5 Z"/></g>
<g><path style="opacity:0.995" fill="#0081c4" d="M 1931.5,4.5 C 1953.18,4.41699 1974.85,4.91699 1996.5,6C 2031.45,7.56878 2064.12,16.9021 2094.5,34C 2147.66,70.1138 2175.49,120.614 2178,185.5C 2179.95,245.335 2160.45,296.835 2119.5,340C 2092.66,364.423 2061.32,380.423 2025.5,388C 2009.66,391.31 1993.66,393.31 1977.5,394C 1956.17,394.5 1934.84,394.667 1913.5,394.5C 1913.5,429.5 1913.5,464.5 1913.5,499.5C 1870.5,499.5 1827.5,499.5 1784.5,499.5C 1784.5,335.5 1784.5,171.5 1784.5,7.5C 1833.68,7.33295 1882.68,6.33295 1931.5,4.5 Z M 1928.5,115.5 C 1958.29,112.289 1985.62,118.789 2010.5,135C 2032.03,153.89 2041.19,177.724 2038,206.5C 2034.88,239.943 2017.72,262.776 1986.5,275C 1962.71,282.646 1938.37,285.146 1913.5,282.5C 1913.5,227.5 1913.5,172.5 1913.5,117.5C 1918.71,117.392 1923.71,116.725 1928.5,115.5 Z"/></g>
<g><path style="opacity:0.993" fill="#0081c3" d="M 453.5,8.5 C 496.5,8.5 539.5,8.5 582.5,8.5C 582.5,69.1667 582.5,129.833 582.5,190.5C 627.833,190.5 673.167,190.5 718.5,190.5C 718.5,129.833 718.5,69.1667 718.5,8.5C 761.167,8.5 803.833,8.5 846.5,8.5C 846.5,172.167 846.5,335.833 846.5,499.5C 803.833,499.5 761.167,499.5 718.5,499.5C 718.5,433.833 718.5,368.167 718.5,302.5C 673.167,302.5 627.833,302.5 582.5,302.5C 582.5,368.167 582.5,433.833 582.5,499.5C 539.5,499.5 496.5,499.5 453.5,499.5C 453.5,335.833 453.5,172.167 453.5,8.5 Z"/></g>
<g><path style="opacity:0.995" fill="#0080c3" d="M 965.5,8.5 C 1008.5,8.5 1051.5,8.5 1094.5,8.5C 1094.5,172.167 1094.5,335.833 1094.5,499.5C 1051.5,499.5 1008.5,499.5 965.5,499.5C 965.5,335.833 965.5,172.167 965.5,8.5 Z"/></g>
<g><path style="opacity:0.99" fill="#0081c3" d="M 1213.5,8.5 C 1256.5,8.5 1299.5,8.5 1342.5,8.5C 1342.5,134.833 1342.5,261.167 1342.5,387.5C 1386.17,387.5 1429.83,387.5 1473.5,387.5C 1473.5,424.833 1473.5,462.167 1473.5,499.5C 1386.83,499.5 1300.17,499.5 1213.5,499.5C 1213.5,335.833 1213.5,172.167 1213.5,8.5 Z"/></g>
<g><path style="opacity:0.995" fill="#0081c4" d="M 1536.5,8.5 C 1579.17,8.5 1621.83,8.5 1664.5,8.5C 1664.5,172.167 1664.5,335.833 1664.5,499.5C 1621.59,499.83 1578.76,499.497 1536,498.5C 1535.17,335.097 1535.33,171.764 1536.5,8.5 Z"/></g>
</svg>
